<svg xmlns="http://www.w3.org/2000/svg" viewBox="0 0 100 100">
  <defs>
    <linearGradient id="heartGradient" x1="0%" y1="0%" x2="100%" y2="100%">
      <stop offset="0%" style="stop-color:#f43f5e;stop-opacity:1" />
      <stop offset="50%" style="stop-color:#ec4899;stop-opacity:1" />
      <stop offset="100%" style="stop-color:#f43f5e;stop-opacity:1" />
    </linearGradient>
  </defs>
  <path d="M50,85 C50,85 15,55 15,35 C15,25 22,18 32,18 C38,18 43,21 50,28 C57,21 62,18 68,18 C78,18 85,25 85,35 C85,55 50,85 50,85 Z" 
        fill="url(#heartGradient)" 
        stroke="#ffffff" 
        stroke-width="2"/>
  <path d="M50,85 C50,85 15,55 15,35 C15,25 22,18 32,18 C38,18 43,21 50,28 C57,21 62,18 68,18 C78,18 85,25 85,35 C85,55 50,85 50,85 Z" 
        fill="url(#heartGradient)" 
        opacity="0.3" 
        transform="translate(2,2)"/>
</svg>

